# AST/ASF file generated using VICON BodyLanguage
# -----------------------------------------------
:version 1.10
:name VICON
:units
  mass 1.0
  length 0.45
  angle deg
:documentation
   .ast/.asf automatically generated from VICON data using
   VICON BodyBuilder and BodyLanguage model FoxedUp or BRILLIANT.MOD
:root
   order TX TY TZ RX RY RZ
   axis XYZ
   position 0 0 0  
   orientation 0 0 0 
:bonedata
  begin
     id 1 
     name lhipjoint
     direction 0.62366 -0.717238 0.310833 
     length 2.53602 
     axis 0 0 0  XYZ
  end
  begin
     id 2 
     name lfemur
     direction 0.34202 -0.939693 0  
     length 7.40817  
     axis 0 0 20  XYZ
    dof rx ry rz
    limits (-160.0 20.0)
           (-70.0 70.0)
           (-60.0 70.0)
  end
  begin
     id 3 
     name ltibia
     direction 0.34202 -0.939693 0   
     length 7.7045   
     axis 0 0 20   XYZ
    dof rx
    limits (-10.0 170.0)
  end
  begin
     id 4 
     name lfoot
     direction 0.0673888 -0.185149 0.980397   
     length 2.09456   
     axis -90 7.62852e-016 20   XYZ
    dof rx rz
    limits (-45.0 90.0)
           (-70.0 20.0)
  end
  begin
     id 5 
     name ltoes
     direction 1.53575e-011 -4.21994e-011 1   
     length 1.05543   
     axis -90 7.62852e-016 20   XYZ
    dof rx
    limits (-90.0 20.0)
  end
  begin
     id 6 
     name rhipjoint
     direction -0.489018 -0.800347 0.346851   
     length 2.27268  
     axis 0 0 0  XYZ 
  end
  begin
     id 7 
     name rfemur
     direction -0.34202 -0.939693 0   
     length 7.55487   
     axis 0 0 -20   XYZ
    dof rx ry rz
    limits (-160.0 20.0)
           (-70.0 70.0)
           (-70.0 60.0)
  end
  begin
     id 8 
     name rtibia
     direction -0.34202 -0.939693 0   
     length 7.78969   
     axis 0 0 -20   XYZ
    dof rx
    limits (-10.0 170.0)
 end
 begin
     id 9 
     name rfoot
     direction -0.0859318 -0.236096 0.967923   
     length 2.19143  
     axis -90 -7.62852e-016 -20   XYZ
    dof rx rz
    limits (-45.0 90.0)
           (-20.0 70.0)
  end
  begin
     id 10 
     name rtoes
     direction -1.53538e-011 -4.21989e-011 1   
     length 1.09845   
     axis -90 -7.62852e-016 -20   XYZ
    dof rx
    limits (-90.0 20.0)
  end
  begin
     id 11 
     name lowerback
     direction -0.00762546 0.998978 -0.0445553   
     length 1.98161   
     axis 0 0 0   XYZ
    dof rx ry rz
    limits (-20.0 45.0)
           (-30.0 30.0)
           (-30.0 30.0)
  end
  begin
     id 12 
     name upperback
     direction 0.0422361 0.998867 -0.0219156   
     length 1.97558   
     axis 0 0 0   XYZ
    dof rx ry rz
    limits (-20.0 45.0)
           (-30.0 30.0)
           (-30.0 30.0)
  end
  begin
     id 13 
     name thorax
     direction 0.0442465 0.999021 7.47603e-005   
     length 1.97799   
     axis 0 0 0   XYZ
    dof rx ry rz
    limits (-20.0 45.0)
           (-30.0 30.0)
           (-30.0 30.0)
  end
  begin
     id 14 
     name lowerneck
     direction 0.00312169 0.984641 0.174564   
     length 1.78995   
     axis 0 0 0   XYZ
    dof rx ry rz
    limits (-20.0 45.0)
           (-30.0 30.0)
           (-30.0 30.0)
  end
  begin
     id 15 
     name upperneck
     direction -0.0383028 0.985255 -0.166749   
     length 1.83053   
     axis 0 0 0   XYZ
    dof rx ry rz
    limits (-20.0 45.0)
           (-30.0 30.0)
           (-30.0 30.0)
  end
  begin
     id 16
     name head
     direction -0.0129546 0.997059 -0.0755386  
     length 1.84088  
     axis 0 0 0   XYZ
    dof rx ry rz
    limits (-20.0 45.0)
           (-30.0 30.0)
           (-30.0 30.0)
  end
  begin
     id 17 
     name lclavicle
     direction 0.912857 0.370519 -0.171488  
     length 3.51279  
     axis 0 0 0   XYZ
    dof ry rz
    limits (-20.0 10.0)
           (0.0 20.0)
  end
  begin
     id 18 
     name lhumerus
     direction 1 -4.48962e-011 3.64361e-027   
     length 4.95663   
     axis 180 -30 -90   XYZ
    dof rx ry rz
    limits (-60.0 90.0)
           (-90.0 90.0)
           (-90.0 90.0)
  end
  begin
     id 19
     name lradius
     direction 1 -4.48974e-011 5.97202e-027   
     length 3.38177   
     axis 180 -30 -90   XYZ
    dof rx
    limits (-10.0 170.0)
  end
  begin
     id 20
     name lwrist
     direction 1 -4.4896e-011 9.83288e-027   
     length 1.69088   
     axis -9.31221e-015 90 90   XYZ
    dof ry
    limits (-180.0 0.0)
 end
  begin
     id 21 
     name lhand
     direction 1 -4.4902e-011 1.96551e-026   
     length 0.662909   
     axis -1.25475e-014 90 90   XYZ
    dof rx rz
    limits (-90.0 90.0)
           (-45.0 45.0)
  end
  begin
     id 22 
     name lfingers
     direction 1 -4.48971e-011 3.93277e-026   
     length 0.534454   
     axis -2.50945e-014 90 90   XYZ
    dof rx
    limits (0.0 90.0)
  end
  begin
     id 23
     name lthumb
     direction 0.707107 -6.34933e-011 0.707107   
     length 0.767373   
     axis -90 45 -4.80359e-014   XYZ
    dof rx rz
    limits (-45.0 45.0)
           (-45.0 45.0)
  end
  begin
     id 24 
     name rclavicle
     direction -0.900919 0.395364 -0.178976   
     length 3.40627  
     axis 0 0 0   XYZ 
    dof ry rz
    limits (-10.0 20.0)
           (-20.0 0.0)
  end
  begin
     id 25 
     name rhumerus
     direction -1 -4.48969e-011 1.03875e-027  
     length 5.08365   
     axis 180 30 90   XYZ
    dof rx ry rz
    limits (-90.0 60.0)
           (-90.0 90.0)
           (-90.0 90.0)
  end
  begin
     id 26 
     name rradius
     direction -1 -4.48951e-011 5.02733e-027   
     length 3.35984   
     axis 180 30 90   XYZ
    dof rx
    limits (-10.0 170.0)
  end
  begin
     id 27 
     name rwrist
     direction -1 -4.49011e-011 9.82828e-027   
     length 1.67992   
     axis -9.31221e-015 -90 -90   XYZ
    dof ry
    limits (-180.0 0.0)
  end
  begin
     id 28
     name rhand
     direction -1 -4.48894e-011 1.96774e-026   
     length 0.820764   
     axis -1.25475e-014 -90 -90   XYZ
    dof rx rz
    limits (-90.0 90.0)
           (-45.0 45.0)
  end
  begin
     id 29
     name rfingers
     direction -1 -4.49095e-011 3.92833e-026   
     length 0.661721   
     axis -2.50945e-014 -90 -90   XYZ
    dof rx
    limits (0.0 90.0)
  end
  begin
     id 30
     name rthumb
     direction -0.707107 -6.34881e-011 0.707107   
     length 0.950103   
     axis -90 -45 4.80359e-014   XYZ
    dof rx rz
    limits (-45.0 45.0)
           (-45.0 45.0)
  end
:hierarchy
  begin
    root lhipjoint rhipjoint lowerback
    lhipjoint lfemur
    lfemur ltibia
    ltibia lfoot
    lfoot ltoes
    rhipjoint rfemur
    rfemur rtibia
    rtibia rfoot
    rfoot rtoes
    lowerback upperback
    upperback thorax
    thorax lowerneck lclavicle rclavicle
    lowerneck upperneck
    upperneck head
    lclavicle lhumerus
    lhumerus lradius
    lradius lwrist
    lwrist lhand lthumb
    lhand lfingers
    rclavicle rhumerus
    rhumerus rradius
    rradius rwrist
    rwrist rhand rthumb
    rhand rfingers
  end

#!OML:ASF I:\golf\golf\golf 2\Subject 1\2002-09-07\Subject1.ASF
:FULLY-SPECIFIED
:DEGREES
62
root -5.79339 17.875 1.68449 -73.8928 86.3799 -91.362
lowerback 4.52761 1.64656 -1.35467
upperback 3.14375 2.2839 4.94039
thorax 0.449562 1.14243 5.78444
lowerneck -17.1158 -1.6978 2.01313
upperneck 41.0906 1.37329 -6.10721
head 18.3872 0.609122 -2.78615
rclavicle 6.75868e-015 -2.3059e-014
rhumerus -4.39232 -3.57814 -101.089
rradius 20.2774
rwrist -31.8418
rhand -14.0832 -6.25283
rfingers 7.12502
rthumb 12.0489 -35.886
lclavicle 6.75868e-015 -2.3059e-014
lhumerus -11.2015 -43.5292 111.244
lradius 28.0339
lwrist 46.017
lhand -12.8846 68.4246
lfingers 7.12502
lthumb -166.796 82.0136
rfemur -29.2814 0.14102 12.5645
rtibia 28.4214
rfoot -11.5661 -9.19782
rtoes 23.0338
lfemur -31.0553 5.08265 -9.54314
ltibia 30.6781
lfoot -11.5662 0.470887
ltoes -20.8231
63
root -5.79266 17.8743 1.68423 -74.3949 86.2829 -91.8722
lowerback 4.52382 1.66647 -1.19519
upperback 3.13639 2.31629 4.92065
thorax 0.446928 1.16121 5.67071
lowerneck -17.1378 -1.70435 2.07395
upperneck 41.0973 1.33374 -6.09401
head 18.3935 0.604697 -2.79941
rclavicle 3.02153e-014 1.66979e-014
rhumerus -4.3629 -3.78004 -101.129
rradius 20.2257
rwrist -31.7165
rhand -14.0626 -6.23354
rfingers 7.12502
rthumb 12.0687 -35.8655
lclavicle 3.02153e-014 1.66979e-014
lhumerus -11.2323 -43.569 111.237
lradius 28.0018
lwrist 46.0005
lhand -12.8077 68.3291
lfingers 7.12502
lthumb -166.721 82.1139
rfemur -29.2575 0.113018 12.691
rtibia 28.37
rfoot -11.528 -9.15111
rtoes 23.7073
lfemur -31.0833 5.12918 -9.44072
ltibia 30.7055
lfoot -11.5962 0.404752
ltoes -20.7216
64
root -5.79316 17.8749 1.68334 -74.8344 86.238 -92.3221
lowerback 4.52954 1.65603 -1.12271
upperback 3.14053 2.3052 4.91563
thorax 0.451985 1.15668 5.62444
lowerneck -17.1911 -1.69544 2.1121
upperneck 41.0999 1.33576 -6.10889
head 18.41 0.608004 -2.81448
rclavicle -3.4191e-014 -2.8625e-014
rhumerus -4.3337 -3.66288 -101.196
rradius 20.2507
rwrist -32.0107
rhand -14.3702 -6.25414
rfingers 7.12502
rthumb 11.7721 -35.9033
lclavicle -3.4191e-014 -2.8625e-014
lhumerus -11.1789 -43.5061 111.178
lradius 27.956
lwrist 46.0105
lhand -12.6763 68.2482
lfingers 7.12502
lthumb -166.595 82.2031
rfemur -29.2533 0.122866 12.7357
rtibia 28.3452
rfoot -11.6679 -9.11887
rtoes 24.8712
lfemur -31.1082 5.09869 -9.38195
ltibia 30.7157
lfoot -11.5925 0.422789
ltoes -20.7136
65
root -5.79379 17.8757 1.68303 -74.5088 86.2787 -92.0068
lowerback 4.53393 1.64382 -1.20291
upperback 3.14344 2.28608 4.92735
thorax 0.451315 1.14586 5.68352
lowerneck -17.2378 -1.66983 2.09926
upperneck 41.1234 1.39725 -6.14108
head 18.4427 0.625935 -2.81746
rclavicle 2.18663e-014 -9.54166e-015
rhumerus -4.34241 -3.38929 -101.211
rradius 20.3148
rwrist -32.4202
rhand -14.6759 -6.28632
rfingers 7.12502
rthumb 11.4773 -35.9521
lclavicle 2.18663e-014 -9.54166e-015
lhumerus -11.1119 -43.3852 111.153
lradius 27.9079
lwrist 45.9863
lhand -12.619 68.1737
lfingers 7.12502
lthumb -166.54 82.2813
rfemur -29.2618 0.149519 12.6737
rtibia 28.3201
rfoot -11.7593 -9.11816
rtoes 25.3801
lfemur -31.1183 5.0905 -9.42915
ltibia 30.7131
lfoot -11.5743 0.451134
ltoes -20.901
66
root -5.79274 17.8765 1.68381 -74.0217 86.2584 -91.5073
lowerback 4.55331 1.67714 -1.20397
upperback 3.14046 2.33079 4.9239
thorax 0.432688 1.16866 5.6776
lowerneck -17.2333 -1.67234 2.1175
upperneck 41.1427 1.38771 -6.13254
head 18.4521 0.627616 -2.81912
rclavicle 1.78906e-014 9.54166e-015
rhumerus -4.33795 -3.57581 -101.179
rradius 20.2641
rwrist -32.0699
rhand -14.4516 -6.2818
rfingers 7.12502
rthumb 11.6936 -35.9354
lclavicle 1.78906e-014 9.54166e-015
lhumerus -11.1715 -43.4892 111.194
lradius 27.9424
lwrist 45.9846
lhand -12.6937 68.2166
lfingers 7.12502
lthumb -166.612 82.2336
rfemur -29.249 0.232734 12.6763
rtibia 28.3148
rfoot -11.8339 -9.17406
rtoes 25.5502
lfemur -31.0738 5.10776 -9.4072
ltibia 30.6861
lfoot -11.5768 0.465437
ltoes -20.7144
67
root -5.79046 17.8774 1.68463 -73.8376 86.2082 -91.2852
lowerback 4.5954 1.69202 -1.15135
upperback 3.14926 2.35298 4.90975
thorax 0.418373 1.18082 5.63036
lowerneck -17.2338 -1.67412 2.14547
upperneck 41.1377 1.35743 -6.09991
head 18.4461 0.623869 -2.81447
rclavicle 1.63003e-014 4.37326e-014
rhumerus -4.32974 -3.74576 -101.19
rradius 20.2193
rwrist -31.7333
rhand -14.2675 -6.27756
rfingers 7.12502
rthumb 11.8711 -35.921
lclavicle 1.63003e-014 4.37326e-014
lhumerus -11.2221 -43.5548 111.167
lradius 27.983
lwrist 45.917
lhand -12.7003 68.1893
lfingers 7.12502
lthumb -166.618 82.2604
rfemur -29.209 0.234795 12.739
rtibia 28.3306
rfoot -11.825 -9.15464
rtoes 25.201
lfemur -30.9916 5.11765 -9.34732
ltibia 30.6449
lfoot -11.5754 0.479969
ltoes -20.6912
68
root -5.78929 17.8751 1.68484 -73.7696 86.2142 -91.1869
lowerback 4.63559 1.69235 -1.12099
upperback 3.14358 2.35457 4.88597
thorax 0.391937 1.18247 5.58642
lowerneck -17.2219 -1.66039 2.12632
upperneck 41.1312 1.36688 -6.05722
head 18.4391 0.630265 -2.78817
rclavicle -1.07344e-014 3.02153e-014
rhumerus -4.36583 -3.66392 -101.21
rradius 20.2482
rwrist -31.8455
rhand -14.3704 -6.27161
rfingers 7.12502
rthumb 11.7719 -35.9208
lclavicle -1.07344e-014 3.02153e-014
lhumerus -11.2473 -43.5073 111.158
lradius 27.9309
lwrist 45.7994
lhand -12.6436 68.0345
lfingers 7.12502
lthumb -166.563 82.4189
rfemur -29.1828 0.190321 12.7424
rtibia 28.3503
rfoot -11.7433 -9.09352
rtoes 25.0271
lfemur -30.9856 5.2607 -9.44112
ltibia 30.6064
lfoot -11.5209 0.602098
ltoes -22.6088
